# xmcd
#
# Track frame offsets: 
#        150
#        7694
#        108039
#        121222
#        140808
#        185386
#        218129
#        229352
#        246079
#
# Disc length: 3391 seconds
#
# Revision: 0
# Processed by: cddbd v1.5.2PL0 Copyright (c) Steve Scherf et al.
# Submitted via: ExactAudioCopy v0.95b4
#
DISCID=720d3d09
DTITLE=Musicians Workshop - Learn to Sing Bluegrass Harmony (Vol 1)
DYEAR=2008
DGENRE=Bluegrass
TTITLE0=Introduction
TTITLE1=Ain't Nobody Gonna Miss Me
TTITLE2=The Old Home Place
TTITLE3=Fox on the Run
TTITLE4=I Wonder Where You Are Tonight
TTITLE5=House of the Rising Sun
TTITLE6=Banks of the Ohio
TTITLE7=Ramblin' Letters
TTITLE8=We'll Meet Again Sweetheart
EXTD=
EXTT0=
EXTT1=
EXTT2=
EXTT3=
EXTT4=
EXTT5=
EXTT6=
EXTT7=
EXTT8=
PLAYORDER=
